<svg width="17" height="17" viewBox="0 0 17 17" fill="none" xmlns="http://www.w3.org/2000/svg">
<path d="M8.50008 12.75L5.26476 8.18125C4.7352 7.556 4.39417 6.79318 4.2814 5.9816C4.16862 5.17003 4.28873 4.34312 4.62775 3.59718C4.96676 2.85123 5.51073 2.21695 6.19629 1.76821C6.88185 1.31946 7.6808 1.07473 8.50008 1.0625C9.63575 1.07372 10.7207 1.53457 11.5173 2.34409C12.3139 3.15362 12.7572 4.24585 12.7501 5.38156C12.7505 6.37231 12.4132 7.33361 11.7938 8.10687L8.50008 12.75ZM8.50008 2.125C7.64575 2.13481 6.83023 2.48326 6.2326 3.09384C5.63497 3.70442 5.30407 4.52722 5.31258 5.38156C5.31613 6.16134 5.59668 6.91449 6.10414 7.50656L8.50008 10.9012L10.9598 7.4375C11.4273 6.85389 11.6838 6.12935 11.6876 5.38156C11.6961 4.52722 11.3652 3.70442 10.7676 3.09384C10.1699 2.48326 9.3544 2.13481 8.50008 2.125Z" fill="#009640"/>
<path d="M8.5 5.84375C9.0868 5.84375 9.5625 5.36805 9.5625 4.78125C9.5625 4.19445 9.0868 3.71875 8.5 3.71875C7.9132 3.71875 7.4375 4.19445 7.4375 4.78125C7.4375 5.36805 7.9132 5.84375 8.5 5.84375Z" fill="#009640"/>
<path d="M14.875 6.375H13.8125V7.4375H14.875V14.875H2.125V7.4375H3.1875V6.375H2.125C1.84321 6.375 1.57296 6.48694 1.3737 6.6862C1.17444 6.88546 1.0625 7.15571 1.0625 7.4375V14.875C1.0625 15.1568 1.17444 15.427 1.3737 15.6263C1.57296 15.8256 1.84321 15.9375 2.125 15.9375H14.875C15.1568 15.9375 15.427 15.8256 15.6263 15.6263C15.8256 15.427 15.9375 15.1568 15.9375 14.875V7.4375C15.9375 7.15571 15.8256 6.88546 15.6263 6.6862C15.427 6.48694 15.1568 6.375 14.875 6.375Z" fill="#009640"/>
</svg>
