<svg width="31" height="31" viewBox="0 0 31 31" fill="none" xmlns="http://www.w3.org/2000/svg">
<path d="M15.2742 3C10.4367 3 6.52417 6.9125 6.52417 11.75C6.52417 18.3125 15.2742 28 15.2742 28C15.2742 28 24.0242 18.3125 24.0242 11.75C24.0242 6.9125 20.1117 3 15.2742 3ZM9.02417 11.75C9.02417 8.3 11.8242 5.5 15.2742 5.5C18.7242 5.5 21.5242 8.3 21.5242 11.75C21.5242 15.35 17.9242 20.7375 15.2742 24.1C12.6742 20.7625 9.02417 15.3125 9.02417 11.75Z" fill="black"/>
<path d="M15.2742 14.875C17.0001 14.875 18.3992 13.4759 18.3992 11.75C18.3992 10.0241 17.0001 8.625 15.2742 8.625C13.5483 8.625 12.1492 10.0241 12.1492 11.75C12.1492 13.4759 13.5483 14.875 15.2742 14.875Z" fill="#43C143"/>
</svg>
