<svg width="15" height="14" viewBox="0 0 15 14" fill="none" xmlns="http://www.w3.org/2000/svg">
<path d="M14.3875 0.644255C14.1967 0.491843 13.9745 0.385672 13.7376 0.333762C13.5007 0.281852 13.2554 0.28556 13.0201 0.344606L10.0587 1.10657C9.93695 1.13227 9.81133 1.13227 9.68958 1.10657L5.51176 0.0449582C5.25785 -0.0149861 4.99387 -0.0149861 4.73996 0.0449582L1.20811 0.952464C0.863075 1.03925 0.556533 1.24162 0.337522 1.52721C0.118512 1.8128 -0.000309894 2.16511 6.57059e-05 2.52776V12.0737C-0.00215609 12.3215 0.0519962 12.5665 0.158262 12.7893C0.264529 13.0121 0.42001 13.2068 0.612476 13.3579C0.803265 13.5103 1.0255 13.6165 1.26239 13.6684C1.49928 13.7203 1.74463 13.7166 1.97991 13.6575L4.9413 12.8956C5.06305 12.8699 5.18867 12.8699 5.31042 12.8956L9.48824 13.9572C9.61515 13.9846 9.74443 13.9989 9.87414 14C10.0038 13.9984 10.1331 13.9841 10.26 13.9572L13.7919 13.0497C14.1369 12.9629 14.4435 12.7605 14.6625 12.4749C14.8815 12.1893 15.0003 11.837 14.9999 11.4744V1.92846C15.0022 1.68065 14.948 1.43569 14.8417 1.21285C14.7355 0.990011 14.58 0.795376 14.3875 0.644255ZM4.7064 12.0737L1.77857 12.8185C1.66726 12.8489 1.55056 12.8526 1.43762 12.8293C1.32467 12.806 1.21855 12.7563 1.12755 12.6842C1.03655 12.6121 0.963141 12.5194 0.913079 12.4135C0.863018 12.3076 0.837658 12.1913 0.838984 12.0737V2.52776C0.839487 2.35657 0.895834 2.19044 0.999132 2.05556C1.10243 1.92069 1.2468 1.82476 1.40945 1.78292L4.7064 0.935341V12.0737ZM9.45468 13.0668L5.54532 12.0737V0.935341L9.45468 1.92846V13.0668ZM14.161 11.4744C14.1605 11.6456 14.1042 11.8117 14.0009 11.9466C13.8976 12.0815 13.7532 12.1774 13.5906 12.2192L10.2936 13.0668V1.92846L13.2214 1.18362C13.3335 1.15422 13.4507 1.15127 13.5641 1.17501C13.6775 1.19875 13.7841 1.24854 13.8758 1.3206C13.966 1.39264 14.0387 1.48498 14.0882 1.59043C14.1377 1.69587 14.1626 1.81156 14.161 1.92846V11.4744Z" fill="#009640"/>
</svg>
