<svg width="41" height="41" viewBox="0 0 41 41" fill="none" xmlns="http://www.w3.org/2000/svg">
<path d="M20.5 7C15.8007 7 12 11.382 12 16.8C12 24.15 20.5 35 20.5 35C20.5 35 29 24.15 29 16.8C29 11.382 25.1993 7 20.5 7ZM14.4286 16.8C14.4286 12.936 17.1486 9.8 20.5 9.8C23.8514 9.8 26.5714 12.936 26.5714 16.8C26.5714 20.832 23.0743 26.866 20.5 30.632C17.9743 26.894 14.4286 20.79 14.4286 16.8Z" fill="black"/>
<path d="M20.4998 20.3C22.1764 20.3 23.5355 18.733 23.5355 16.8C23.5355 14.867 22.1764 13.3 20.4998 13.3C18.8232 13.3 17.4641 14.867 17.4641 16.8C17.4641 18.733 18.8232 20.3 20.4998 20.3Z" fill="#43C143"/>
<circle cx="20.5" cy="20.5" r="20" stroke="#009640"/>
</svg>
